<?xml version="1.0" standalone="no"?><!DOCTYPE svg PUBLIC "-//W3C//DTD SVG 1.1//EN" "http://www.w3.org/Graphics/SVG/1.1/DTD/svg11.dtd"><svg t="1681568252501" class="icon" viewBox="0 0 1024 1024" version="1.1" xmlns="http://www.w3.org/2000/svg" p-id="938" width="16" height="16" xmlns:xlink="http://www.w3.org/1999/xlink"><path d="M924.672 918.528c-3.072 0-7.168-1.024-10.24-3.072L753.664 803.84c-73.728 34.816-156.672 52.224-242.688 52.224C248.832 857.088 35.84 688.128 35.84 481.28c0-206.848 212.992-375.808 475.136-375.808S986.112 274.432 986.112 481.28c0 96.256-46.08 187.392-129.024 258.048l83.968 153.6c4.096 7.168 2.048 15.36-3.072 21.504-4.096 2.048-9.216 4.096-13.312 4.096z m-10.24-12.288zM755.712 770.048l133.12 91.136-70.656-130.048 10.24-8.192c82.944-65.536 128-151.552 128-242.688 0-190.464-199.68-346.112-444.416-346.112C266.24 135.168 66.56 290.816 66.56 481.28S266.24 827.392 510.976 827.392c83.968 0 165.888-18.432 237.568-53.248l7.168-4.096z" p-id="939"></path><path d="M320.512 543.744c-36.864 0-66.56-29.696-66.56-66.56s29.696-66.56 66.56-66.56 66.56 29.696 66.56 66.56-30.72 66.56-66.56 66.56z m0-102.4c-20.48 0-36.864 16.384-36.864 36.864s16.384 36.864 36.864 36.864 36.864-16.384 36.864-36.864-17.408-36.864-36.864-36.864zM500.736 543.744c-36.864 0-66.56-29.696-66.56-66.56s29.696-66.56 66.56-66.56 66.56 29.696 66.56 66.56-29.696 66.56-66.56 66.56z m0-102.4c-20.48 0-36.864 16.384-36.864 36.864s16.384 36.864 36.864 36.864 36.864-16.384 36.864-36.864-16.384-36.864-36.864-36.864zM681.984 543.744c-36.864 0-66.56-29.696-66.56-66.56s29.696-66.56 66.56-66.56 66.56 29.696 66.56 66.56-29.696 66.56-66.56 66.56z m0-102.4c-20.48 0-36.864 16.384-36.864 36.864s16.384 36.864 36.864 36.864 36.864-16.384 36.864-36.864-16.384-36.864-36.864-36.864z" p-id="940"></path></svg>